<svg width="14" height="14" viewBox="0 0 14 14" fill="none" xmlns="http://www.w3.org/2000/svg">
<path d="M6.06603 1.40134C6.32325 0.609708 7.4432 0.609708 7.70042 1.40134L8.61944 4.22982C8.73448 4.58385 9.06439 4.82355 9.43664 4.82355H12.4107C13.243 4.82355 13.5891 5.88869 12.9157 6.37794L10.5097 8.12604C10.2085 8.34484 10.0825 8.73268 10.1975 9.08671L11.1166 11.9152C11.3738 12.7068 10.4677 13.3651 9.79432 12.8759L7.38828 11.1278C7.08712 10.909 6.67932 10.909 6.37817 11.1278L3.97212 12.8759C3.29872 13.3651 2.39266 12.7068 2.64987 11.9152L3.5689 9.08671C3.68393 8.73268 3.55792 8.34484 3.25676 8.12604L0.850715 6.37794C0.17731 5.88869 0.523395 4.82355 1.35577 4.82355H4.3298C4.70205 4.82355 5.03197 4.58385 5.147 4.22982L6.06603 1.40134Z" fill="#F59E0B"/>
</svg>
