<svg width="99" height="25" viewBox="0 0 99 25" fill="none" xmlns="http://www.w3.org/2000/svg">
<path d="M25.8848 8.56836H35.8479V10.4231H31.925V20.8786H29.7748V10.4231H25.8684L25.8848 8.56836ZM35.4211 11.966H37.2595V13.6894H37.2923C37.3579 13.4432 37.4728 13.2134 37.637 12.9836C37.8011 12.7538 37.9981 12.5405 38.2443 12.3599C38.4741 12.1629 38.7367 12.0152 39.0321 11.9003C39.3112 11.7854 39.6066 11.7198 39.902 11.7198C40.1318 11.7198 40.296 11.7362 40.378 11.7362C40.4601 11.7526 40.5586 11.769 40.6407 11.769V13.6566C40.5094 13.6238 40.3616 13.6073 40.2139 13.5909C40.0662 13.5745 39.9349 13.5581 39.7872 13.5581C39.4589 13.5581 39.147 13.6237 38.8516 13.7551C38.5561 13.8864 38.3099 14.0833 38.0801 14.3295C37.8668 14.5922 37.6862 14.904 37.5549 15.2815C37.4236 15.659 37.3579 16.1022 37.3579 16.5946V20.8293H35.3883L35.4211 11.966ZM49.6681 20.8786H47.7313V19.6311H47.6985C47.4523 20.0907 47.0912 20.4354 46.6152 20.7144C46.1392 20.9935 45.6468 21.1248 45.1544 21.1248C43.989 21.1248 43.1355 20.8457 42.6103 20.2549C42.0851 19.6804 41.8224 18.794 41.8224 17.6287V11.966H43.7921V17.4317C43.7921 18.2196 43.9398 18.7776 44.2517 19.0895C44.5471 19.4178 44.9739 19.5819 45.5155 19.5819C45.9258 19.5819 46.2705 19.5162 46.5496 19.3849C46.8286 19.2536 47.0584 19.0895 47.2225 18.8761C47.4031 18.6627 47.518 18.4001 47.6 18.1047C47.6821 17.8092 47.7149 17.4809 47.7149 17.1363V11.966H49.6846V20.8786H49.6681ZM53.0165 18.0226C53.0822 18.5971 53.2956 18.991 53.6731 19.2372C54.0506 19.467 54.5102 19.5819 55.0354 19.5819C55.2159 19.5819 55.4293 19.5655 55.6591 19.5327C55.8889 19.4998 56.1187 19.4506 56.3157 19.3685C56.529 19.2864 56.6932 19.1716 56.8245 19.0074C56.9558 18.8433 57.0214 18.6463 57.005 18.4001C56.9886 18.1539 56.9066 17.9405 56.726 17.7764C56.5455 17.6123 56.3321 17.4974 56.0695 17.3825C55.8068 17.284 55.495 17.2019 55.1503 17.1363C54.8056 17.0706 54.4609 16.9885 54.0998 16.9065C53.7387 16.8244 53.3776 16.7259 53.0329 16.611C52.6883 16.4961 52.3928 16.3484 52.1138 16.135C51.8512 15.9381 51.6214 15.6919 51.4736 15.38C51.3095 15.0682 51.2274 14.707 51.2274 14.2475C51.2274 13.7551 51.3423 13.3611 51.5885 13.0329C51.8183 12.7046 52.1302 12.442 52.4913 12.245C52.8524 12.048 53.2627 11.9003 53.7059 11.8183C54.1491 11.7362 54.5758 11.7034 54.9697 11.7034C55.4293 11.7034 55.8725 11.7526 56.2828 11.8511C56.6932 11.9496 57.0871 12.0973 57.4154 12.3271C57.7601 12.5405 58.0391 12.8359 58.2525 13.1806C58.4823 13.5253 58.6136 13.952 58.6792 14.4444H56.6275C56.529 13.9684 56.3157 13.6566 55.9874 13.4924C55.6427 13.3283 55.2652 13.2462 54.822 13.2462C54.6907 13.2462 54.5102 13.2627 54.3296 13.2791C54.1327 13.3119 53.9685 13.3447 53.788 13.4104C53.6238 13.476 53.4761 13.5745 53.3612 13.6894C53.2463 13.8043 53.1807 13.9684 53.1807 14.1654C53.1807 14.4116 53.2627 14.5922 53.4269 14.7399C53.591 14.8876 53.8044 15.0025 54.0834 15.1174C54.346 15.2159 54.6579 15.2979 55.0026 15.3636C55.3473 15.4292 55.7084 15.5113 56.0695 15.5934C56.4306 15.6755 56.7752 15.7739 57.1199 15.8888C57.4646 16.0037 57.7765 16.1514 58.0391 16.3648C58.3017 16.5618 58.5315 16.808 58.6956 17.1034C58.8598 17.3989 58.9418 17.7764 58.9418 18.2031C58.9418 18.7284 58.8269 19.1716 58.5807 19.5491C58.3345 19.9102 58.0227 20.222 57.6452 20.4518C57.2677 20.6816 56.8245 20.8457 56.3649 20.9606C55.8889 21.0591 55.4293 21.1248 54.9697 21.1248C54.4117 21.1248 53.8864 21.0591 53.4104 20.9278C52.9345 20.7965 52.5077 20.5995 52.163 20.3533C51.8183 20.0907 51.5393 19.7789 51.3423 19.3849C51.1454 19.0074 51.0305 18.5478 51.0141 18.0062H53.0001V18.0226H53.0165ZM59.4999 11.966H60.9935V9.27414H62.9632V11.9496H64.7358V13.4104H62.9632V18.1703C62.9632 18.3837 62.9796 18.5478 62.996 18.712C63.0124 18.8597 63.0617 18.991 63.1109 19.0895C63.1766 19.188 63.275 19.27 63.3899 19.3193C63.5212 19.3685 63.6854 19.4013 63.9152 19.4013C64.0465 19.4013 64.1942 19.4013 64.3255 19.3849C64.4568 19.3685 64.6045 19.3521 64.7358 19.3193V20.8457C64.5225 20.8786 64.3091 20.895 64.0957 20.9114C63.8823 20.9442 63.6854 20.9442 63.4556 20.9442C62.9304 20.9442 62.52 20.895 62.2081 20.7965C61.8963 20.698 61.6501 20.5503 61.4695 20.3697C61.289 20.1728 61.1741 19.943 61.1084 19.664C61.0428 19.3849 61.01 19.0402 60.9935 18.6791V13.4268H59.4999V11.9332V11.966ZM66.1146 11.966H67.9693V13.1806H68.0022C68.2812 12.6553 68.6587 12.2942 69.1511 12.0645C69.6435 11.8347 70.1688 11.7198 70.7596 11.7198C71.4654 11.7198 72.0727 11.8347 72.598 12.0973C73.1232 12.3435 73.55 12.6718 73.8946 13.1149C74.2393 13.5417 74.5019 14.0505 74.6661 14.625C74.8302 15.1995 74.9287 15.8232 74.9287 16.4633C74.9287 17.0706 74.8466 17.6451 74.6989 18.2031C74.5348 18.7612 74.305 19.27 73.9931 19.6968C73.6813 20.1235 73.2873 20.4682 72.7949 20.7308C72.3025 20.9935 71.7445 21.1248 71.0879 21.1248C70.8089 21.1248 70.5134 21.0919 70.2344 21.0427C69.9554 20.9935 69.6763 20.9114 69.4137 20.7965C69.1511 20.6816 68.9049 20.5339 68.6915 20.3533C68.4617 20.1728 68.2812 19.9594 68.1335 19.7296H68.1006V24.1777H66.131V11.966H66.1146ZM72.9919 16.4305C72.9919 16.0366 72.9427 15.6426 72.8278 15.2651C72.7293 14.8876 72.5651 14.5593 72.3518 14.2639C72.1384 13.9684 71.8758 13.7386 71.5803 13.5581C71.2685 13.3775 70.9074 13.2955 70.5134 13.2955C69.6928 13.2955 69.069 13.5745 68.6423 14.149C68.2319 14.7235 68.0186 15.4949 68.0186 16.4469C68.0186 16.9065 68.0678 17.3168 68.1827 17.6943C68.2976 18.0718 68.4453 18.4001 68.6751 18.6791C68.8885 18.9582 69.1511 19.1716 69.463 19.3357C69.7748 19.4998 70.1195 19.5819 70.5299 19.5819C70.9894 19.5819 71.3505 19.4834 71.6624 19.3029C71.9743 19.1223 72.2205 18.8761 72.4338 18.5971C72.6308 18.3016 72.7785 17.9734 72.8606 17.5958C72.9427 17.2019 72.9919 16.8244 72.9919 16.4305ZM76.4552 8.56836H78.4248V10.4231H76.4552V8.56836ZM76.4552 11.966H78.4248V20.8786H76.4552V11.966ZM80.1811 8.56836H82.1507V20.8786H80.1811V8.56836ZM88.1581 21.1248C87.4523 21.1248 86.8122 21.0099 86.2541 20.7637C85.696 20.5175 85.2365 20.2056 84.8425 19.7953C84.465 19.3849 84.1696 18.8761 83.9726 18.3016C83.7756 17.7272 83.6607 17.087 83.6607 16.4141C83.6607 15.7411 83.7592 15.1174 83.9726 14.5429C84.1696 13.9684 84.465 13.476 84.8425 13.0493C85.22 12.6389 85.696 12.3107 86.2541 12.0809C86.8122 11.8511 87.4523 11.7198 88.1581 11.7198C88.8639 11.7198 89.504 11.8347 90.062 12.0809C90.6201 12.3107 91.0797 12.6389 91.4736 13.0493C91.8511 13.4596 92.1466 13.9684 92.3435 14.5429C92.5405 15.1174 92.6554 15.7411 92.6554 16.4141C92.6554 17.1034 92.5569 17.7272 92.3435 18.3016C92.1302 18.8761 91.8511 19.3685 91.4736 19.7953C91.0961 20.2056 90.6201 20.5339 90.062 20.7637C89.504 20.9935 88.8803 21.1248 88.1581 21.1248ZM88.1581 19.5655C88.5848 19.5655 88.9788 19.467 89.2906 19.2864C89.6189 19.1059 89.8651 18.8597 90.0785 18.5642C90.2918 18.2688 90.4396 17.9241 90.538 17.563C90.6365 17.1855 90.6858 16.808 90.6858 16.4141C90.6858 16.0366 90.6365 15.659 90.538 15.2815C90.4396 14.904 90.2918 14.5757 90.0785 14.2803C89.8651 13.9849 89.6025 13.7551 89.2906 13.5745C88.9623 13.394 88.5848 13.2955 88.1581 13.2955C87.7313 13.2955 87.3374 13.394 87.0255 13.5745C86.6973 13.7551 86.4511 14.0013 86.2377 14.2803C86.0243 14.5757 85.8766 14.904 85.7781 15.2815C85.6796 15.659 85.6304 16.0366 85.6304 16.4141C85.6304 16.808 85.6796 17.1855 85.7781 17.563C85.8766 17.9405 86.0243 18.2688 86.2377 18.5642C86.4511 18.8597 86.7137 19.1059 87.0255 19.2864C87.3538 19.4834 87.7313 19.5655 88.1581 19.5655ZM93.2463 11.966H94.7399V9.27414H96.7096V11.9496H98.4822V13.4104H96.7096V18.1703C96.7096 18.3837 96.726 18.5478 96.7424 18.712C96.7588 18.8597 96.808 18.991 96.8573 19.0895C96.9229 19.188 97.0214 19.27 97.1363 19.3193C97.2676 19.3685 97.4318 19.4013 97.6616 19.4013C97.7929 19.4013 97.9406 19.4013 98.0719 19.3849C98.2032 19.3685 98.3509 19.3521 98.4822 19.3193V20.8457C98.2689 20.8786 98.0555 20.895 97.8421 20.9114C97.6287 20.9442 97.4318 20.9442 97.202 20.9442C96.6767 20.9442 96.2664 20.895 95.9545 20.7965C95.6427 20.698 95.3965 20.5503 95.2159 20.3697C95.0354 20.1728 94.9205 19.943 94.8548 19.664C94.7892 19.3849 94.7563 19.0402 94.7399 18.6791V13.4268H93.2463V11.9332V11.966Z" fill="black"/>
<path d="M23.5864 8.56791H14.5753L11.8014 0L9.01107 8.56791L0 8.55149L7.28764 13.8531L4.49733 22.421L11.785 17.1194L19.0726 22.421L16.2987 13.8531L23.5864 8.56791Z" fill="#00B67A"/>
<path d="M16.923 15.7913L16.2993 13.8545L11.802 17.1208L16.923 15.7913Z" fill="#005128"/>
</svg>
